<mxfile host="" modified="2020-06-18T13:35:40.193Z" agent="5.0 (Macintosh; Intel Mac OS X 10_13_4) AppleWebKit/537.36 (KHTML, like Gecko) Code/1.46.0 Chrome/78.0.3904.130 Electron/7.3.1 Safari/537.36" etag="fGKNbBQTj-AoFg6jNEz7" version="13.1.3">
    <diagram id="6hGFLwfOUW9BJ-s0fimq" name="Page-1">
        <mxGraphModel dx="566" dy="635" grid="1" gridSize="10" guides="1" tooltips="1" connect="1" arrows="1" fold="1" page="1" pageScale="1" pageWidth="827" pageHeight="1169" math="0" shadow="0">
            <root>
                <mxCell id="0"/>
                <mxCell id="1" parent="0"/>
                <mxCell id="2" value="Authentication Flow" style="swimlane;html=1;startSize=20;horizontal=1;childLayout=flowLayout;flowOrientation=north;resizable=0;interRankCellSpacing=50;containerType=tree;" vertex="1" parent="1">
                    <mxGeometry x="20" y="20" width="270" height="280" as="geometry"/>
                </mxCell>
                <mxCell id="3" value="Login" style="whiteSpace=wrap;html=1;" vertex="1" parent="2">
                    <mxGeometry x="85" y="40" width="100" height="40" as="geometry"/>
                </mxCell>
                <mxCell id="4" value="Task" style="whiteSpace=wrap;html=1;" vertex="1" parent="2">
                    <mxGeometry x="20" y="130" width="100" height="40" as="geometry"/>
                </mxCell>
                <mxCell id="5" value="" style="html=1;curved=1;noEdgeStyle=1;orthogonal=1;" edge="1" parent="2" source="3" target="4">
                    <mxGeometry relative="1" as="geometry">
                        <Array as="points">
                            <mxPoint x="112.5" y="92"/>
                            <mxPoint x="70" y="118"/>
                        </Array>
                    </mxGeometry>
                </mxCell>
                <mxCell id="6" value="Task" style="whiteSpace=wrap;html=1;" vertex="1" parent="2">
                    <mxGeometry x="150" y="130" width="100" height="40" as="geometry"/>
                </mxCell>
                <mxCell id="7" value="" style="html=1;curved=1;noEdgeStyle=1;orthogonal=1;" edge="1" parent="2" source="3" target="6">
                    <mxGeometry relative="1" as="geometry">
                        <Array as="points">
                            <mxPoint x="157.5" y="92"/>
                            <mxPoint x="200" y="118"/>
                        </Array>
                    </mxGeometry>
                </mxCell>
                <mxCell id="8" value="End" style="whiteSpace=wrap;html=1;" vertex="1" parent="2">
                    <mxGeometry x="85" y="220" width="100" height="40" as="geometry"/>
                </mxCell>
                <mxCell id="9" value="" style="html=1;curved=1;noEdgeStyle=1;orthogonal=1;" edge="1" parent="2" source="4" target="8">
                    <mxGeometry relative="1" as="geometry">
                        <Array as="points">
                            <mxPoint x="70" y="182"/>
                            <mxPoint x="112.5" y="208"/>
                        </Array>
                    </mxGeometry>
                </mxCell>
                <mxCell id="10" value="" style="html=1;curved=1;noEdgeStyle=1;orthogonal=1;" edge="1" parent="2" source="6" target="8">
                    <mxGeometry relative="1" as="geometry">
                        <Array as="points">
                            <mxPoint x="200" y="182"/>
                            <mxPoint x="157.5" y="208"/>
                        </Array>
                    </mxGeometry>
                </mxCell>
            </root>
        </mxGraphModel>
    </diagram>
</mxfile>
